<svg xmlns="http://www.w3.org/2000/svg" viewBox="0 0 240 240" role="img" aria-labelledby="title desc">
  <title id="title">Box Healthy bank transfer QR placeholder</title>
  <desc id="desc">Replace this placeholder with the real bank transfer QR image.</desc>
  <rect width="240" height="240" rx="22" fill="#ffffff"/>
  <rect x="12" y="12" width="216" height="216" rx="18" fill="#f2fff6" stroke="#05b84f" stroke-width="4"/>
  <g fill="#172033">
    <rect x="30" y="30" width="52" height="52" rx="5"/>
    <rect x="38" y="38" width="36" height="36" rx="3" fill="#f2fff6"/>
    <rect x="48" y="48" width="16" height="16" rx="2"/>
    <rect x="158" y="30" width="52" height="52" rx="5"/>
    <rect x="166" y="38" width="36" height="36" rx="3" fill="#f2fff6"/>
    <rect x="176" y="48" width="16" height="16" rx="2"/>
    <rect x="30" y="158" width="52" height="52" rx="5"/>
    <rect x="38" y="166" width="36" height="36" rx="3" fill="#f2fff6"/>
    <rect x="48" y="176" width="16" height="16" rx="2"/>
    <rect x="100" y="34" width="14" height="14"/>
    <rect x="122" y="34" width="22" height="14"/>
    <rect x="96" y="60" width="30" height="12"/>
    <rect x="136" y="58" width="12" height="24"/>
    <rect x="96" y="96" width="16" height="16"/>
    <rect x="122" y="96" width="12" height="34"/>
    <rect x="144" y="96" width="36" height="12"/>
    <rect x="190" y="96" width="18" height="18"/>
    <rect x="96" y="122" width="18" height="18"/>
    <rect x="140" y="122" width="18" height="18"/>
    <rect x="166" y="122" width="42" height="14"/>
    <rect x="96" y="154" width="14" height="54"/>
    <rect x="118" y="154" width="36" height="14"/>
    <rect x="164" y="154" width="14" height="28"/>
    <rect x="190" y="154" width="18" height="18"/>
    <rect x="118" y="184" width="20" height="20"/>
    <rect x="148" y="194" width="60" height="14"/>
  </g>
  <rect x="44" y="100" width="152" height="40" rx="20" fill="#ffffff" stroke="#05b84f" stroke-width="3"/>
  <text x="120" y="125" text-anchor="middle" font-family="Arial, sans-serif" font-size="14" font-weight="700" fill="#008a3a">THAY QR CUA BAN</text>
</svg>
